<?xml version="1.0" standalone="no"?>
<!DOCTYPE svg PUBLIC "-//W3C//DTD SVG 20010904//EN"
 "http://www.w3.org/TR/2001/REC-SVG-20010904/DTD/svg10.dtd">
<svg version="1.0" xmlns="http://www.w3.org/2000/svg"
 width="1500.000000pt" height="1500.000000pt" viewBox="0 0 1500.000000 1500.000000"
 preserveAspectRatio="xMidYMid meet">
<metadata>
Created by potrace 1.14, written by Peter Selinger 2001-2017
</metadata>
<g transform="translate(0.000000,1500.000000) scale(0.100000,-0.100000)"
fill="#000000" stroke="none">
<path d="M4755 11145 c-177 -39 -322 -132 -419 -269 -24 -33 -79 -124 -122
-201 -50 -92 -100 -166 -144 -215 -152 -172 -339 -415 -459 -598 -30 -45 -55
-81 -56 -80 -2 2 8 87 21 189 48 385 51 664 9 877 -22 109 -29 122 -65 122
-24 0 -36 -9 -64 -47 -73 -100 -147 -275 -182 -435 -24 -105 -24 -346 0 -456
30 -141 85 -274 155 -376 l29 -41 -41 -70 c-112 -195 -272 -571 -342 -800 -20
-65 -38 -121 -40 -124 -3 -2 -5 11 -5 30 0 19 -7 106 -16 194 -8 88 -18 223
-23 300 -9 154 -23 213 -57 250 -34 37 -67 32 -119 -16 -96 -88 -140 -236
-132 -439 10 -240 91 -457 216 -581 l67 -65 -18 -120 c-28 -179 -35 -568 -14
-753 14 -121 48 -319 72 -411 4 -14 -21 18 -56 70 -201 303 -337 443 -497 510
-86 36 -108 37 -128 7 -14 -22 -13 -31 10 -111 63 -217 186 -403 357 -540 90
-73 252 -159 333 -178 l51 -12 52 -153 c96 -279 281 -679 411 -883 14 -22 10
-21 -34 11 -289 210 -526 309 -644 268 -49 -17 -49 -45 1 -151 148 -311 471
-491 784 -438 68 12 78 12 88 -2 6 -9 50 -72 98 -140 169 -239 347 -450 536
-635 l114 -111 -63 25 c-165 66 -315 93 -529 93 -169 0 -200 -8 -200 -54 0
-44 182 -178 320 -237 131 -55 220 -73 370 -73 118 0 147 3 232 28 l98 28 117
-79 c294 -199 589 -329 871 -383 130 -25 152 -25 152 -2 0 15 -19 24 -92 45
-122 34 -309 101 -378 135 l-55 27 -12 82 c-30 196 -154 418 -352 625 -57 60
-80 78 -101 78 -48 0 -53 -18 -36 -112 33 -173 107 -348 202 -475 30 -40 51
-73 46 -73 -17 0 -307 197 -397 269 -49 40 -140 118 -201 173 l-111 101 -6
136 c-9 223 -60 427 -156 626 -74 152 -178 241 -221 190 -10 -12 -11 -44 -7
-123 8 -163 50 -341 112 -485 25 -59 4 -38 -104 106 -193 259 -380 555 -502
799 -61 122 -68 148 -46 167 7 6 32 50 55 98 76 160 108 343 99 553 -7 135
-39 345 -65 425 -14 42 -21 51 -44 53 -24 3 -33 -5 -67 -58 -44 -68 -93 -186
-117 -282 -30 -121 -29 -397 2 -548 8 -38 -20 25 -72 163 -85 228 -167 546
-198 775 -24 169 -23 173 25 200 69 40 187 161 255 262 107 161 179 338 224
549 25 115 22 148 -16 157 -31 8 -72 -30 -192 -171 -121 -144 -221 -306 -299
-485 l-24 -55 5 125 c13 299 91 646 218 973 l49 127 53 0 c200 0 501 176 701
410 145 169 178 235 133 264 -49 30 -469 -170 -667 -320 -39 -29 -71 -52 -71
-50 0 7 86 159 157 277 98 164 227 348 375 534 185 234 174 224 336 299 327
152 433 249 557 510 73 152 82 181 66 200 -16 19 -71 19 -156 1z m-324 -318
l-24 -22 19 27 c10 14 21 24 23 22 3 -3 -6 -15 -18 -27z"/>
<path d="M10081 11141 c-10 -18 -5 -38 35 -129 133 -309 231 -406 581 -574
l162 -77 82 -98 c103 -124 270 -345 347 -460 67 -100 228 -365 262 -433 21
-42 22 -43 2 -30 -185 135 -378 242 -566 315 -124 49 -159 52 -171 15 -8 -26
11 -60 93 -166 211 -272 502 -463 737 -482 l80 -7 52 -135 c84 -221 154 -484
187 -705 15 -102 38 -376 32 -382 -1 -2 -19 36 -39 84 -76 182 -209 382 -356
535 -52 55 -102 98 -112 98 -10 0 -25 -10 -33 -23 -14 -20 -13 -34 8 -137 31
-153 65 -250 136 -395 93 -190 224 -349 345 -421 42 -24 45 -28 40 -62 -38
-287 -59 -392 -121 -610 -41 -143 -116 -363 -145 -426 l-19 -41 5 45 c43 336
9 569 -113 777 -37 64 -57 79 -91 68 -31 -9 -75 -215 -90 -419 -21 -275 38
-563 143 -701 30 -39 26 -51 -67 -229 -143 -270 -419 -690 -581 -881 -26 -30
-26 -29 4 37 67 152 113 373 108 523 l-3 90 -33 3 c-51 5 -127 -78 -190 -209
-98 -202 -150 -410 -157 -629 l-4 -125 -83 -79 c-100 -94 -298 -255 -399 -323
-124 -84 -241 -155 -234 -142 5 6 29 39 54 73 94 124 176 317 202 477 15 93
10 109 -33 109 -28 0 -44 -11 -104 -75 -200 -209 -321 -425 -357 -635 -8 -44
-16 -82 -18 -84 -16 -13 -194 -79 -339 -126 -134 -44 -176 -61 -179 -75 -3
-16 3 -18 65 -12 248 23 633 178 934 378 l147 98 79 -26 c61 -19 108 -26 204
-30 145 -6 260 13 395 66 129 50 345 202 345 243 0 8 -9 23 -21 34 -19 17 -37
19 -203 18 -158 -1 -196 -5 -299 -28 -117 -27 -156 -39 -232 -71 -36 -15 -29
-6 70 92 204 202 359 386 545 648 88 122 108 145 125 140 11 -3 65 -9 120 -12
316 -18 599 162 731 465 44 102 36 123 -56 137 -57 8 -149 -14 -245 -60 -89
-43 -244 -136 -315 -189 -83 -63 -86 -64 -55 -10 148 253 279 535 394 854 50
139 59 155 81 158 44 6 168 59 238 100 212 126 389 354 466 600 29 92 32 122
14 140 -40 40 -199 -29 -321 -138 -57 -52 -254 -304 -317 -408 -18 -29 -34
-51 -36 -49 -3 2 7 55 20 118 73 337 84 717 31 1071 l-15 98 63 63 c51 49 75
84 115 167 126 257 143 556 44 758 -28 57 -113 142 -142 142 -29 0 -69 -50
-85 -104 -8 -28 -19 -123 -25 -211 -14 -241 -32 -458 -37 -475 -2 -8 -20 37
-40 100 -62 205 -146 410 -265 649 l-116 234 33 51 c77 121 132 266 155 406
15 94 12 284 -5 383 -28 163 -103 353 -186 473 -24 36 -36 44 -60 44 -38 0
-50 -26 -75 -165 -27 -147 -25 -508 4 -745 12 -96 24 -200 28 -230 l6 -55
-102 150 c-122 179 -267 366 -378 490 -83 92 -110 133 -223 335 -136 244 -335
384 -579 406 -63 6 -69 5 -79 -15z m479 -306 c14 -19 14 -19 -2 -6 -10 7 -18
18 -18 24 0 6 1 8 3 6 1 -2 9 -13 17 -24z"/>
<path d="M7385 9894 c-104 -8 -304 -37 -420 -60 -101 -21 -122 -22 -130 -11
-12 16 -64 6 -167 -33 -80 -30 -85 -51 -23 -107 26 -24 57 -46 69 -49 13 -3
140 6 283 20 143 14 271 26 284 26 20 0 9 -14 -66 -82 -158 -144 -425 -411
-486 -487 -101 -124 -135 -212 -105 -269 32 -62 91 -82 102 -34 18 73 214 323
541 688 80 89 150 172 157 185 13 26 40 34 155 45 l74 7 -97 -108 c-242 -268
-525 -655 -542 -743 -5 -24 -2 -32 15 -42 26 -13 33 -9 80 43 42 47 248 217
262 217 13 0 5 -26 -32 -104 -35 -74 -38 -134 -9 -161 18 -16 26 -17 75 -6 59
13 178 86 294 180 35 28 65 50 67 48 2 -2 -1 -19 -6 -38 -14 -45 -3 -123 21
-154 59 -74 191 -49 419 79 112 64 259 170 365 264 76 68 89 86 81 108 -5 12
-18 6 -63 -27 -128 -93 -357 -239 -436 -278 -87 -43 -229 -80 -260 -68 -33 12
-15 89 31 130 17 16 21 16 32 2 21 -25 64 -17 149 26 91 47 197 137 217 186
18 42 5 76 -38 104 -66 41 -184 3 -333 -108 -171 -127 -469 -313 -482 -300
-13 13 11 60 98 192 85 130 90 140 72 153 -31 23 -71 5 -197 -87 -67 -49 -123
-87 -125 -85 -14 13 167 219 372 423 154 153 155 154 207 159 50 5 51 5 44 31
-4 14 -7 37 -8 51 -1 20 -7 26 -31 28 -16 2 -66 12 -110 23 -80 20 -285 32
-400 23z m835 -578 c0 -33 -192 -176 -234 -176 -16 1 -4 17 58 76 98 93 176
138 176 100z"/>
<path d="M6281 8444 c-126 -43 -247 -120 -368 -237 -75 -72 -193 -213 -193
-230 0 -18 27 -2 96 57 154 132 329 232 507 291 122 39 177 50 177 35 0 -27
-34 -61 -279 -280 -258 -229 -358 -334 -415 -439 -52 -96 -42 -189 26 -231 92
-58 270 24 513 236 50 43 163 150 253 238 89 87 162 156 162 152 0 -4 -78 -94
-173 -199 -95 -106 -237 -266 -316 -357 l-142 -165 -61 -12 c-180 -37 -424
-216 -467 -342 -14 -43 1 -104 32 -126 47 -33 169 -9 286 57 172 96 365 289
531 528 214 308 504 679 687 877 57 62 103 116 103 121 0 16 -46 52 -66 52
-11 0 -40 -21 -64 -46 -63 -64 -401 -353 -605 -516 -367 -293 -585 -433 -585
-375 0 38 114 156 360 374 234 208 320 314 328 407 6 70 -16 111 -71 137 -62
27 -163 25 -256 -7z m-239 -1226 c-95 -118 -343 -348 -376 -348 -46 0 126 215
246 308 63 49 170 114 176 107 2 -2 -18 -32 -46 -67z"/>
<path d="M8314 7972 c-135 -47 -286 -177 -346 -299 -27 -56 -33 -78 -32 -131
1 -76 22 -110 81 -131 36 -13 49 -13 109 2 110 26 271 113 474 255 31 21 -37
-63 -99 -123 -41 -39 -51 -71 -29 -93 32 -32 98 4 288 158 154 124 146 118
135 100 -5 -8 -30 -44 -55 -80 -42 -60 -45 -70 -45 -127 0 -54 4 -66 26 -89
41 -40 93 -42 165 -6 77 39 247 171 403 313 110 101 138 138 114 152 -5 3 -98
-62 -208 -144 -261 -194 -365 -247 -373 -191 -6 41 37 108 149 232 64 71 109
129 107 139 -2 10 -19 19 -45 25 -42 9 -43 8 -140 -66 -119 -90 -228 -168
-237 -168 -3 0 26 43 64 96 39 52 73 101 76 109 7 18 -39 47 -67 43 -13 -2
-36 -22 -54 -48 -37 -53 -294 -231 -440 -305 -93 -47 -235 -85 -268 -72 -33
12 -15 89 31 130 17 16 21 16 32 2 21 -25 64 -17 149 26 91 47 197 137 217
186 18 42 5 77 -38 103 -40 24 -77 25 -144 2z m86 -76 c0 -33 -192 -176 -234
-176 -16 1 -4 17 58 76 98 93 176 138 176 100z"/>
<path d="M7830 7953 c-41 -6 -142 -44 -183 -70 -21 -13 -79 -55 -128 -92 -80
-61 -318 -210 -361 -226 -25 -10 -23 19 4 58 12 18 78 89 146 159 137 139 145
158 69 158 -38 0 -48 -5 -87 -46 -49 -50 -300 -243 -350 -269 -17 -9 -35 -13
-40 -10 -17 11 17 61 105 158 47 50 85 99 85 108 0 24 -26 42 -53 35 -64 -16
-213 -174 -287 -303 -54 -93 -60 -158 -17 -182 26 -15 30 -14 80 12 29 15 85
57 124 92 39 36 76 65 82 65 5 0 1 -19 -9 -42 -26 -58 -26 -119 0 -143 33 -30
113 -6 225 69 l93 62 -5 -37 c-5 -33 -1 -42 25 -69 37 -37 67 -38 130 -6 54
28 90 53 163 116 45 38 50 40 32 15 -11 -16 -33 -41 -48 -55 -15 -14 -61 -68
-103 -120 -123 -154 -255 -301 -337 -374 l-77 -69 -18 23 c-18 24 -18 25 6 53
38 45 145 139 230 204 65 48 74 59 55 61 -50 8 -252 -112 -339 -201 l-43 -44
-42 16 c-32 12 -79 15 -192 15 -132 0 -162 -3 -249 -27 -330 -91 -586 -265
-586 -397 0 -39 22 -82 56 -109 57 -45 164 -15 279 77 45 35 125 132 110 132
-3 0 -66 -30 -139 -66 -126 -62 -216 -90 -216 -66 0 14 72 77 133 116 205 131
460 206 699 206 l108 0 14 -34 c9 -22 28 -42 51 -54 l37 -19 -42 -36 c-94 -81
-382 -227 -447 -227 -18 0 4 27 140 174 70 75 87 99 82 116 -9 27 -43 26 -84
-5 -60 -43 -311 -277 -407 -378 -97 -103 -206 -255 -250 -352 -23 -51 -25 -62
-15 -95 12 -40 46 -90 62 -90 6 0 26 34 44 75 19 41 39 75 45 75 6 0 24 -15
41 -34 31 -36 101 -66 154 -66 80 0 319 84 431 151 76 46 160 129 184 181 26
56 26 143 1 183 -10 17 -39 42 -65 55 -25 14 -46 27 -46 30 0 3 18 15 40 28
62 35 171 143 192 189 14 32 29 47 64 64 134 65 280 218 454 479 35 52 129
183 209 290 80 107 150 200 154 207 11 18 -9 50 -35 59 -13 3 -30 13 -39 20
-21 19 -67 31 -99 27z m49 -119 c-84 -89 -338 -274 -376 -274 -28 0 -10 28 65
100 86 83 193 159 268 189 73 29 83 26 43 -15z m-819 -920 c0 -2 -7 -4 -15 -4
-8 0 -15 4 -15 10 0 5 7 7 15 4 8 -4 15 -8 15 -10z m-140 -407 c107 -56 -153
-268 -450 -368 -91 -30 -221 -48 -254 -36 -13 5 13 46 124 194 78 104 146 190
151 192 6 1 19 -5 30 -15 18 -17 24 -16 137 9 172 39 223 44 262 24z"/>
<path d="M9410 7046 c-102 -54 -309 -261 -438 -438 -52 -72 -57 -76 -70 -57
-16 23 -51 24 -118 4 -62 -19 -149 -70 -366 -217 -260 -176 -388 -239 -388
-192 0 25 134 151 233 219 48 33 87 66 87 73 0 8 -8 27 -17 44 -19 32 -17 32
-159 12 -35 -5 -56 1 -129 35 -94 44 -152 52 -179 25 -23 -23 -20 -39 15 -79
19 -21 28 -40 23 -45 -56 -53 -410 -277 -421 -266 -12 12 26 69 132 196 58 69
105 128 105 132 0 17 -46 49 -66 46 -12 -2 -31 6 -43 16 -78 70 -385 -122
-552 -347 -77 -103 -87 -160 -36 -207 11 -11 29 -20 40 -20 36 0 139 64 212
132 40 37 76 68 80 68 3 0 4 -9 0 -20 -11 -36 -8 -139 5 -155 7 -8 23 -15 36
-15 38 0 201 116 468 335 102 83 94 79 111 65 8 -6 35 -17 61 -24 l46 -12 -58
-48 c-76 -63 -101 -92 -125 -141 -46 -98 -7 -185 85 -185 52 0 144 44 247 119
l66 48 -12 -34 c-16 -47 -5 -92 27 -116 24 -18 32 -19 67 -9 45 14 143 83 215
151 43 41 48 43 43 21 -26 -115 -21 -141 28 -165 89 -41 236 46 583 347 106
93 126 116 113 136 -4 8 -38 -10 -101 -54 -165 -114 -492 -314 -513 -314 -13
0 -7 31 14 73 56 109 177 242 520 572 171 164 229 235 232 283 2 23 -2 27 -28
29 -16 2 -50 -8 -75 -21z m-1880 -627 c-30 -28 -101 -90 -158 -137 -173 -145
-229 -172 -166 -80 58 82 231 223 312 253 65 24 68 15 12 -36z m1330 43 c0 -4
-63 -62 -140 -127 -140 -120 -249 -200 -258 -191 -17 18 147 191 241 255 76
52 157 84 157 63z"/>
<path d="M7301 4826 c-13 -14 -20 -29 -16 -35 3 -6 0 -11 -8 -11 -8 0 -17 10
-20 22 -5 18 -8 19 -22 8 -15 -13 -15 -15 6 -30 13 -10 19 -22 15 -29 -10 -15
-31 -9 -31 10 0 20 -29 17 -33 -3 -2 -11 3 -18 12 -18 35 0 26 -25 -25 -70
l-54 -47 -35 18 c-19 11 -47 19 -62 19 -29 0 -88 -44 -88 -66 0 -8 -12 -19
-26 -24 -22 -9 -25 -14 -19 -39 11 -50 -57 -95 -92 -60 -12 12 -49 -10 -105
-60 -71 -63 -35 -170 87 -256 38 -28 58 -35 95 -35 55 0 79 15 120 77 22 32
28 49 21 56 -16 16 -13 49 5 76 14 19 23 22 51 18 29 -5 35 -3 43 18 5 13 18
26 30 30 25 8 60 61 60 90 0 11 -8 36 -19 55 l-18 35 45 51 c37 44 64 62 92
64 3 0 5 -6 5 -12 0 -7 8 -14 18 -16 24 -5 22 23 -4 40 -20 13 -20 15 -5 27
15 13 18 12 23 -7 6 -23 27 -29 38 -12 3 6 -1 13 -10 16 -14 6 -14 9 5 29 14
15 18 25 11 30 -6 3 -11 15 -11 26 0 12 -7 19 -18 19 -10 0 -23 5 -28 10 -7 7
-18 2 -33 -14z"/>
<path d="M6137 4822 c-9 -10 -20 -34 -23 -53 -14 -71 -7 -69 -190 -69 l-164 0
2 -232 3 -233 148 -3 c133 -2 146 -4 132 -18 -22 -23 -19 -67 8 -92 25 -24 84
-30 118 -12 24 13 49 61 49 95 l0 25 145 0 c138 0 145 1 145 20 0 19 -7 20
-149 20 l-149 0 35 35 35 35 114 0 c107 0 114 1 114 20 0 19 -7 20 -115 20
-107 0 -115 1 -115 19 0 11 -3 26 -6 35 -5 14 9 16 115 16 114 0 121 1 121 20
0 19 -7 20 -157 20 -87 0 -163 4 -169 8 -6 4 -14 19 -17 33 -9 36 4 39 191 39
94 0 152 4 152 10 0 6 -58 10 -153 10 -85 0 -156 3 -160 6 -3 3 2 21 10 40
l17 34 143 0 c120 0 143 2 143 15 0 13 -20 15 -122 15 -68 0 -128 4 -134 8 -6
4 -13 28 -16 54 -3 27 -11 55 -18 63 -17 21 -63 19 -83 -3z m57 -42 c3 -11 8
-29 11 -39 7 -23 -24 -44 -50 -35 -13 5 -15 14 -11 37 11 53 40 74 50 37z
m-80 -142 c4 -21 2 -35 -6 -40 -7 -4 -60 -7 -118 -6 l-105 3 -3 38 -3 37 114
0 115 0 6 -32z m66 23 c0 -5 -6 -14 -14 -20 -11 -9 -15 -7 -19 9 -4 15 0 20
14 20 10 0 19 -4 19 -9z m-115 -97 c14 -6 11 -12 -16 -40 -31 -32 -37 -34
-101 -34 l-68 0 0 33 c0 19 3 37 7 40 8 9 156 9 178 1z m75 -49 c0 -20 -5 -25
-25 -25 -25 0 -25 1 -9 25 9 14 20 25 25 25 5 0 9 -11 9 -25z m-150 -100 l0
-35 -55 0 -55 0 0 35 0 35 55 0 55 0 0 -35z m100 23 c0 -30 -13 -58 -26 -58
-15 0 -18 27 -8 54 7 19 34 22 34 4z m132 -15 c26 -23 23 -43 -7 -43 -15 0
-25 6 -25 14 0 8 -3 21 -6 30 -8 21 14 21 38 -1z m-66 -41 c-3 -2 -12 -2 -21
2 -13 5 -14 10 -4 28 l12 22 9 -23 c5 -13 6 -26 4 -29z m-140 -63 c10 -12 33
-28 49 -35 27 -12 20 -13 -77 -14 l-108 0 0 35 0 35 58 0 c48 0 63 -4 78 -21z
m154 -6 c0 -24 -2 -25 -37 -18 -21 3 -47 15 -58 26 -19 19 -19 19 38 18 54 -2
57 -3 57 -26z m58 15 c-6 -18 -28 -21 -28 -4 0 9 7 16 16 16 9 0 14 -5 12 -12z
m-38 -113 c0 -9 -7 -31 -14 -50 -13 -29 -20 -35 -46 -35 -30 0 -30 0 -14 25
15 23 15 27 0 50 l-16 25 45 0 c34 0 45 -4 45 -15z"/>
<path d="M8504 4822 c-75 -60 -37 -152 62 -152 l44 0 0 -265 c0 -258 0 -265
22 -284 31 -30 59 -33 306 -29 l224 3 24 28 c13 15 24 41 24 56 0 34 -41 81
-70 81 -20 0 -20 5 -20 261 l0 261 -29 29 -29 29 -269 0 c-239 0 -270 -2 -289
-18z m574 -18 c22 -15 22 -18 22 -280 l0 -264 -215 0 c-201 0 -216 -1 -235
-20 -20 -20 -20 -19 -22 213 l-3 232 -51 3 c-64 4 -93 28 -72 61 17 27 32 27
17 0 -9 -17 -8 -25 4 -37 18 -17 45 -10 54 14 4 11 -2 24 -16 36 -13 10 -18
18 -12 18 7 0 23 -11 36 -25 25 -24 25 -24 25 -2 0 27 -9 40 -35 55 -15 9 38
11 230 12 211 0 254 -2 273 -16z m95 -596 l21 -28 -21 -27 -20 -28 -196 -3
-196 -2 9 31 c7 23 5 39 -6 60 l-15 29 202 -2 202 -3 20 -27z m-483 -58 c11 0
29 9 40 20 17 17 20 18 20 3 0 -25 -30 -53 -57 -53 -27 0 -63 32 -63 57 0 14
3 13 20 -5 12 -12 30 -22 40 -22z"/>
<path d="M8710 4690 c0 -6 62 -10 165 -10 103 0 165 4 165 10 0 6 -62 10 -165
10 -103 0 -165 -4 -165 -10z"/>
<path d="M8715 4610 c-3 -5 0 -12 7 -15 25 -10 308 0 311 10 3 14 -309 19
-318 5z"/>
<path d="M8715 4520 c-3 -5 0 -12 7 -15 25 -10 308 0 311 10 3 14 -309 19
-318 5z"/>
<path d="M8710 4430 c0 -6 62 -10 165 -10 103 0 165 4 165 10 0 6 -62 10 -165
10 -103 0 -165 -4 -165 -10z"/>
<path d="M8710 4340 c0 -6 32 -10 75 -10 43 0 75 4 75 10 0 6 -32 10 -75 10
-43 0 -75 -4 -75 -10z"/>
<path d="M7360 4629 c-11 -8 -12 -12 -2 -16 6 -2 12 -10 12 -16 -1 -18 -273
-440 -287 -445 -7 -2 -13 5 -13 15 -1 17 -2 17 -16 -2 -13 -18 -13 -21 1 -31
8 -6 15 -16 15 -23 0 -30 29 -4 69 62 25 39 88 140 141 222 121 187 123 192
116 221 -7 26 -14 29 -36 13z"/>
<path d="M7803 4606 c-60 -27 -79 -105 -44 -181 18 -39 90 -114 144 -150 35
-23 53 -15 131 55 68 63 96 113 96 174 0 92 -88 143 -161 93 -36 -24 -37 -24
-55 -6 -26 25 -73 32 -111 15z"/>
</g>
</svg>
